<mxfile host="app.diagrams.net" agent="Mozilla/5.0 (Windows NT 10.0; Win64; x64) AppleWebKit/537.36 (KHTML, like Gecko) Chrome/141.0.0.0 Safari/537.36" version="26.0.15">
  <diagram name="Page-1" id="e7e014a7-5840-1c2e-5031-d8a46d1fe8dd">
    <mxGraphModel grid="1" page="1" gridSize="10" guides="1" tooltips="1" connect="1" arrows="1" fold="1" pageScale="1" pageWidth="1169" pageHeight="826" background="none" math="0" shadow="0">
      <root>
        <mxCell id="0" />
        <mxCell id="1" parent="0" />
        <mxCell id="2" value="Nutzer:in" style="swimlane;whiteSpace=wrap" vertex="1" parent="1">
          <mxGeometry x="164.5" y="128" width="280" height="762" as="geometry" />
        </mxCell>
        <mxCell id="4_3H5pcr26-Frk019c_B-54" style="edgeStyle=orthogonalEdgeStyle;rounded=0;orthogonalLoop=1;jettySize=auto;html=1;exitX=0.5;exitY=1;exitDx=0;exitDy=0;entryX=0.5;entryY=0;entryDx=0;entryDy=0;" edge="1" parent="2" source="4_3H5pcr26-Frk019c_B-41" target="4_3H5pcr26-Frk019c_B-42">
          <mxGeometry relative="1" as="geometry" />
        </mxCell>
        <mxCell id="4_3H5pcr26-Frk019c_B-41" value="" style="ellipse;whiteSpace=wrap;html=1;aspect=fixed;fillColor=#000000;" vertex="1" parent="2">
          <mxGeometry x="126" y="42" width="28" height="28" as="geometry" />
        </mxCell>
        <mxCell id="4_3H5pcr26-Frk019c_B-55" style="edgeStyle=orthogonalEdgeStyle;rounded=0;orthogonalLoop=1;jettySize=auto;html=1;exitX=0.5;exitY=1;exitDx=0;exitDy=0;entryX=0.5;entryY=0;entryDx=0;entryDy=0;" edge="1" parent="2" source="4_3H5pcr26-Frk019c_B-42" target="4_3H5pcr26-Frk019c_B-43">
          <mxGeometry relative="1" as="geometry" />
        </mxCell>
        <mxCell id="4_3H5pcr26-Frk019c_B-42" value="Aufruf Login-page" style="rounded=1;whiteSpace=wrap;html=1;" vertex="1" parent="2">
          <mxGeometry x="80.5" y="92" width="120" height="60" as="geometry" />
        </mxCell>
        <mxCell id="4_3H5pcr26-Frk019c_B-57" style="edgeStyle=orthogonalEdgeStyle;rounded=0;orthogonalLoop=1;jettySize=auto;html=1;exitX=0.5;exitY=1;exitDx=0;exitDy=0;entryX=0.5;entryY=0;entryDx=0;entryDy=0;" edge="1" parent="2" source="4_3H5pcr26-Frk019c_B-43" target="4_3H5pcr26-Frk019c_B-46">
          <mxGeometry relative="1" as="geometry" />
        </mxCell>
        <mxCell id="4_3H5pcr26-Frk019c_B-43" value="Eingabe von Userdaten in Eingabefeld" style="rounded=1;whiteSpace=wrap;html=1;" vertex="1" parent="2">
          <mxGeometry x="80.5" y="182" width="120" height="60" as="geometry" />
        </mxCell>
        <mxCell id="4_3H5pcr26-Frk019c_B-50" style="edgeStyle=orthogonalEdgeStyle;rounded=0;orthogonalLoop=1;jettySize=auto;html=1;exitX=0.5;exitY=1;exitDx=0;exitDy=0;entryX=0.5;entryY=0;entryDx=0;entryDy=0;" edge="1" parent="2" source="4_3H5pcr26-Frk019c_B-46" target="4_3H5pcr26-Frk019c_B-47">
          <mxGeometry relative="1" as="geometry" />
        </mxCell>
        <mxCell id="4_3H5pcr26-Frk019c_B-46" value="Passwortanforderung&lt;div&gt;erfÃ¼llt&lt;/div&gt;" style="rounded=1;whiteSpace=wrap;html=1;" vertex="1" parent="2">
          <mxGeometry x="80.5" y="276" width="120" height="60" as="geometry" />
        </mxCell>
        <mxCell id="4_3H5pcr26-Frk019c_B-51" style="edgeStyle=orthogonalEdgeStyle;rounded=0;orthogonalLoop=1;jettySize=auto;html=1;exitX=0;exitY=0.5;exitDx=0;exitDy=0;entryX=0;entryY=0.5;entryDx=0;entryDy=0;" edge="1" parent="2" source="4_3H5pcr26-Frk019c_B-47" target="4_3H5pcr26-Frk019c_B-43">
          <mxGeometry relative="1" as="geometry">
            <Array as="points">
              <mxPoint x="26" y="401" />
              <mxPoint x="26" y="212" />
            </Array>
          </mxGeometry>
        </mxCell>
        <mxCell id="4_3H5pcr26-Frk019c_B-47" value="" style="rhombus;whiteSpace=wrap;html=1;" vertex="1" parent="2">
          <mxGeometry x="115.25" y="372" width="49.5" height="58" as="geometry" />
        </mxCell>
        <mxCell id="4_3H5pcr26-Frk019c_B-52" value="Ja" style="text;html=1;align=center;verticalAlign=middle;whiteSpace=wrap;rounded=0;" vertex="1" parent="2">
          <mxGeometry x="154.5" y="372" width="60" height="30" as="geometry" />
        </mxCell>
        <mxCell id="4_3H5pcr26-Frk019c_B-53" value="Nein" style="text;html=1;align=center;verticalAlign=middle;whiteSpace=wrap;rounded=0;" vertex="1" parent="2">
          <mxGeometry x="66.5" y="372" width="60" height="30" as="geometry" />
        </mxCell>
        <mxCell id="4_3H5pcr26-Frk019c_B-74" style="edgeStyle=orthogonalEdgeStyle;rounded=0;orthogonalLoop=1;jettySize=auto;html=1;exitX=0.5;exitY=1;exitDx=0;exitDy=0;entryX=0.5;entryY=0;entryDx=0;entryDy=0;" edge="1" parent="2" source="4_3H5pcr26-Frk019c_B-58" target="4_3H5pcr26-Frk019c_B-72">
          <mxGeometry relative="1" as="geometry" />
        </mxCell>
        <mxCell id="4_3H5pcr26-Frk019c_B-58" value="Aufruf Homepage" style="rounded=1;whiteSpace=wrap;html=1;" vertex="1" parent="2">
          <mxGeometry x="80.5" y="572" width="120" height="60" as="geometry" />
        </mxCell>
        <mxCell id="4_3H5pcr26-Frk019c_B-72" value="" style="ellipse;whiteSpace=wrap;html=1;aspect=fixed;" vertex="1" parent="2">
          <mxGeometry x="121.5" y="682" width="38" height="38" as="geometry" />
        </mxCell>
        <mxCell id="4_3H5pcr26-Frk019c_B-73" value="" style="ellipse;whiteSpace=wrap;html=1;aspect=fixed;fillColor=#000000;" vertex="1" parent="2">
          <mxGeometry x="126.5" y="687" width="28" height="28" as="geometry" />
        </mxCell>
        <mxCell id="3" value="Backend" style="swimlane;whiteSpace=wrap;startSize=23;" vertex="1" parent="1">
          <mxGeometry x="445" y="128" width="280" height="762" as="geometry" />
        </mxCell>
        <mxCell id="4_3H5pcr26-Frk019c_B-44" value="Registrieren der Userdaten in Datenbank" style="rounded=1;whiteSpace=wrap;html=1;" vertex="1" parent="3">
          <mxGeometry x="80" y="572" width="120" height="60" as="geometry" />
        </mxCell>
        <mxCell id="4_3H5pcr26-Frk019c_B-64" style="edgeStyle=orthogonalEdgeStyle;rounded=0;orthogonalLoop=1;jettySize=auto;html=1;exitX=0.5;exitY=1;exitDx=0;exitDy=0;entryX=0.5;entryY=0;entryDx=0;entryDy=0;" edge="1" parent="3" source="4_3H5pcr26-Frk019c_B-61" target="4_3H5pcr26-Frk019c_B-63">
          <mxGeometry relative="1" as="geometry" />
        </mxCell>
        <mxCell id="4_3H5pcr26-Frk019c_B-61" value="User bereits vorhanden in Datenbank" style="rounded=1;whiteSpace=wrap;html=1;" vertex="1" parent="3">
          <mxGeometry x="80" y="371" width="120" height="60" as="geometry" />
        </mxCell>
        <mxCell id="4_3H5pcr26-Frk019c_B-65" style="edgeStyle=orthogonalEdgeStyle;rounded=0;orthogonalLoop=1;jettySize=auto;html=1;exitX=0.5;exitY=1;exitDx=0;exitDy=0;entryX=0.5;entryY=0;entryDx=0;entryDy=0;" edge="1" parent="3" source="4_3H5pcr26-Frk019c_B-63" target="4_3H5pcr26-Frk019c_B-44">
          <mxGeometry relative="1" as="geometry" />
        </mxCell>
        <mxCell id="4_3H5pcr26-Frk019c_B-63" value="" style="rhombus;whiteSpace=wrap;html=1;" vertex="1" parent="3">
          <mxGeometry x="115" y="462" width="49.5" height="58" as="geometry" />
        </mxCell>
        <mxCell id="4_3H5pcr26-Frk019c_B-67" value="Ja" style="text;html=1;align=center;verticalAlign=middle;whiteSpace=wrap;rounded=0;" vertex="1" parent="3">
          <mxGeometry x="165" y="462" width="60" height="30" as="geometry" />
        </mxCell>
        <mxCell id="4_3H5pcr26-Frk019c_B-68" value="Nein" style="text;html=1;align=center;verticalAlign=middle;whiteSpace=wrap;rounded=0;" vertex="1" parent="3">
          <mxGeometry x="135" y="520" width="60" height="30" as="geometry" />
        </mxCell>
        <mxCell id="4_3H5pcr26-Frk019c_B-62" style="edgeStyle=orthogonalEdgeStyle;rounded=0;orthogonalLoop=1;jettySize=auto;html=1;exitX=1;exitY=0.5;exitDx=0;exitDy=0;entryX=0;entryY=0.5;entryDx=0;entryDy=0;" edge="1" parent="1" source="4_3H5pcr26-Frk019c_B-47" target="4_3H5pcr26-Frk019c_B-61">
          <mxGeometry relative="1" as="geometry" />
        </mxCell>
        <mxCell id="4_3H5pcr26-Frk019c_B-66" style="edgeStyle=orthogonalEdgeStyle;rounded=0;orthogonalLoop=1;jettySize=auto;html=1;exitX=1;exitY=0.5;exitDx=0;exitDy=0;entryX=1;entryY=0.5;entryDx=0;entryDy=0;" edge="1" parent="1" source="4_3H5pcr26-Frk019c_B-63" target="4_3H5pcr26-Frk019c_B-42">
          <mxGeometry relative="1" as="geometry">
            <Array as="points">
              <mxPoint x="690" y="619" />
              <mxPoint x="690" y="250" />
            </Array>
          </mxGeometry>
        </mxCell>
        <mxCell id="4_3H5pcr26-Frk019c_B-69" style="edgeStyle=orthogonalEdgeStyle;rounded=0;orthogonalLoop=1;jettySize=auto;html=1;exitX=0;exitY=0.5;exitDx=0;exitDy=0;entryX=1;entryY=0.5;entryDx=0;entryDy=0;" edge="1" parent="1" source="4_3H5pcr26-Frk019c_B-44" target="4_3H5pcr26-Frk019c_B-58">
          <mxGeometry relative="1" as="geometry" />
        </mxCell>
      </root>
    </mxGraphModel>
  </diagram>
</mxfile>
